<svg xmlns="http://www.w3.org/2000/svg" version="1.1" xmlns:xlink="http://www.w3.org/1999/xlink" xmlns:svgjs="http://svgjs.dev/svgjs" width="1000" height="340" viewBox="0 0 1000 340"><g transform="matrix(1,0,0,1,-0.6060584154191702,0.5509052046089096)"><svg viewBox="0 0 396 135" data-background-color="#010536" preserveAspectRatio="xMidYMid meet" height="340" width="1000" xmlns="http://www.w3.org/2000/svg" xmlns:xlink="http://www.w3.org/1999/xlink"><defs></defs><g id="tight-bounds" transform="matrix(1,0,0,1,0.23999913250600002,-0.218741772418241)"><svg viewBox="0 0 395.52 135.43748354483648" height="135.43748354483648" width="395.52"><g><svg viewBox="0 0 395.52 135.43748354483648" height="135.43748354483648" width="395.52"><g transform="matrix(1,0,0,1,0,83.70579831307221)"><svg viewBox="0 0 395.52 51.731685231764274" height="51.731685231764274" width="395.52"><g><svg viewBox="0 0 395.52 51.731685231764274" height="51.731685231764274" width="395.52"><g><svg viewBox="0 0 395.52 51.731685231764274" height="51.731685231764274" width="395.52"><g transform="matrix(1,0,0,1,0,0)"><svg width="395.52" viewBox="2.5 -35.900001525878906 278.2799987792969 36.400001525878906" height="51.731685231764274" data-palette-color="#fbfbf8"><path d="M15.5 0.5L15.5 0.5Q12.75 0.5 10.3-0.03 7.85-0.55 6.05-1.3 4.25-2.05 3.4-2.7L3.4-2.7 3.4-11.65Q5.8-10.3 9.45-9.13 13.1-7.95 17.55-7.95L17.55-7.95Q19.35-7.95 20.23-8.43 21.1-8.9 21.1-10.1L21.1-10.1Q21.1-11.4 19.13-12.28 17.15-13.15 12.9-14.45L12.9-14.45Q9.6-15.5 7.28-16.78 4.95-18.05 3.73-19.98 2.5-21.9 2.5-24.9L2.5-24.9Q2.5-28 4.1-30.5 5.7-33 9.1-34.45 12.5-35.9 17.8-35.9L17.8-35.9Q19.4-35.9 21.23-35.77 23.05-35.65 24.15-35.45L24.15-35.45 29.8-31.3 27.85-25.2 16-28.45Q13.95-28.45 12.98-27.6 12-26.75 12-25.55L12-25.55Q12-24.1 13.65-23.25 15.3-22.4 18.4-21.55L18.4-21.55Q23.3-20.2 26-18.55 28.7-16.9 29.8-14.83 30.9-12.75 30.9-10.15L30.9-10.15Q30.9-5.35 27.05-2.43 23.2 0.5 15.5 0.5ZM60.85 0L36.9 0 35.9-3 36.9-8 36.9-35.4 45.9-35.4 45.9-14.85 45.4-8 46.4-8 55.35-8.5 58.9-9 63.3-3.2 60.85 0ZM76.34 0L67.3 0 67.3-27.4 66.8-32.4 67.3-35.4 76.34-35.4 76.34 0ZM99.29 0.5L99.29 0.5Q95.89 0.5 92.69-0.28 89.49-1.05 86.92-3.05 84.34-5.05 82.84-8.6 81.34-12.15 81.34-17.7L81.34-17.7Q81.34-22.85 82.84-26.35 84.34-29.85 86.84-31.95 89.34-34.05 92.32-34.98 95.29-35.9 98.29-35.9L98.29-35.9Q100.84-35.9 103.27-35.5 105.69-35.1 106.79-34.6L106.79-34.6 112.34-30.05 107.84-22.8 99.29-27.2Q95.74-27.2 93.29-24.88 90.84-22.55 90.84-17.7L90.84-17.7Q90.84-14.25 92.07-12.1 93.29-9.95 95.44-8.95 97.59-7.95 100.34-7.95L100.34-7.95Q103.24-7.95 105.29-8.43 107.34-8.9 108.89-9.58 110.44-10.25 111.84-10.9L111.84-10.9 111.84-2.5Q110.09-1.4 107.19-0.45 104.29 0.5 99.29 0.5ZM127.04 0L118.04 0 118.04-27.2 117.04-32.25 118.04-35.4 127.04-35.4 127.04-29.4 126.54-20.45 129.54-20.45 137.59-35.4 147.54-35.4 147.54-32.4 137.64-18.35 146.04-7.95 150.99-3 150.99 0 139.74 0 130.64-13.25 127.04-12.75 127.04-6 127.54-3 127.04 0ZM174.94 0L161.99 0 153.99-27.45 152.49-32.4 152.49-35.4 161.99-35.4 168.24-9.6 169.24-9.6 173.99-35.4 187.14-35.4 191.04-15.95 191.84-9.6 192.84-9.6 199.04-35.4 208.44-35.4 208.44-32.4 206.94-27.45 199.04 0 186.09 0 180.94-26.1 179.89-26.1 179.04-20.05 174.94 0ZM240.38 0L213.44 0 212.44-3 213.44-8 213.44-35.4 238.19-35.4 240.69-33.9 237.38-26.9 232.88-27.4 222.44-27.4 222.44-21.9 235.88-21.9 235.88-14.15 229.99-14.15 222.44-14.65 222.44-8 237.38-8 243.34-3.2 240.38 0ZM268.33 0L247.83 0 247.83-27.4 246.83-32.4 247.83-35.4 264.83-35.4Q270.48-35.4 273.88-33.3 277.28-31.2 277.28-26.5L277.28-26.5Q277.28-24.15 276.48-22.25 275.68-20.35 274.18-19.3L274.18-19.3Q277.58-18.2 279.18-15.95 280.78-13.7 280.78-10.6L280.78-10.6Q280.78-5.15 277.61-2.58 274.43 0 268.33 0L268.33 0ZM256.83-27.4L256.83-21.65 264.73-21.65Q266.43-21.65 267.18-22.45 267.93-23.25 267.93-24.55L267.93-24.55Q267.93-26.2 266.83-26.8 265.73-27.4 264.23-27.4L264.23-27.4 256.83-27.4ZM256.83-14.2L256.83-8 266.83-8Q268.63-8 269.51-8.45 270.38-8.9 270.66-9.6 270.93-10.3 270.93-11.05L270.93-11.05Q270.93-12.35 270.01-13.28 269.08-14.2 267.33-14.2L267.33-14.2 256.83-14.2Z" opacity="1" transform="matrix(1,0,0,1,0,0)" fill="#fbfbf8" class="undefined-text-0" data-fill-palette-color="primary" id="text-0"></path></svg></g></svg></g></svg></g></svg></g><g transform="matrix(1,0,0,1,148.79716202092973,0)"><svg viewBox="0 0 97.92567595814053 71.49318899029822" height="71.49318899029822" width="97.92567595814053"><g><svg xmlns="http://www.w3.org/2000/svg" xmlns:xlink="http://www.w3.org/1999/xlink" version="1.1" baseProfile="basic" x="8" y="0" viewBox="5 10 80.10000610351562 69.9000015258789" xml:space="preserve" height="71.49318899029822" width="81.92567595814053" class="icon-icon-0" data-fill-palette-color="accent" id="icon-0"><g fill="#ffff00" data-fill-palette-color="accent"><path fill-rule="evenodd" clip-rule="evenodd" d="M77.2 10H12.8C8.2 10 5 13.8 5 17.9v54.1c0 4.1 3.2 7.9 7.8 7.9h64.5c4.6 0 7.8-3.8 7.8-7.9V17.9C85 13.8 81.8 10 77.2 10zM12.8 17h64.5c1 0 1.8 0.6 1.8 0.9V33H11V17.9C11 17.6 11.7 17 12.8 17zM77.2 73H12.8c-1 0-1.8-0.6-1.8-0.9V37h68v35.1C79 72.4 78.3 73 77.2 73z" fill="#ffff00" data-fill-palette-color="accent"></path><path fill-rule="evenodd" clip-rule="evenodd" d="M71.4 27.8c1.4 0 2.6-1.2 2.6-2.7 0-1.5-1.2-2.7-2.6-2.7-1.4 0-2.6 1.2-2.6 2.7C68.8 26.6 70 27.8 71.4 27.8z" fill="#ffff00" data-fill-palette-color="accent"></path><path fill-rule="evenodd" clip-rule="evenodd" d="M60.9 27.8c1.4 0 2.6-1.2 2.6-2.7 0-1.5-1.2-2.7-2.6-2.7-1.5 0-2.6 1.2-2.6 2.7C58.2 26.6 59.4 27.8 60.9 27.8z" fill="#ffff00" data-fill-palette-color="accent"></path><path fill-rule="evenodd" clip-rule="evenodd" d="M50.3 27.8c1.4 0 2.6-1.2 2.6-2.7 0-1.5-1.2-2.7-2.6-2.7-1.5 0-2.7 1.2-2.7 2.7C47.6 26.6 48.8 27.8 50.3 27.8z" fill="#ffff00" data-fill-palette-color="accent"></path></g></svg></g></svg></g><g><rect width="148.79716202092973" height="4.665216761299662" y="65.82797222899856" x="246.72283797907028" fill="#ffff00" data-fill-palette-color="accent"></rect><rect width="148.79716202092973" height="4.665216761299662" y="65.82797222899856" x="0" fill="#ffff00" data-fill-palette-color="accent"></rect><rect width="148.79716202092973" height="4.665216761299662" y="56.49753870639924" x="246.72283797907028" fill="#ffff00" data-fill-palette-color="accent"></rect><rect width="148.79716202092973" height="4.665216761299662" y="56.49753870639924" x="0" fill="#ffff00" data-fill-palette-color="accent"></rect></g></svg></g></svg><rect width="395.52" height="135.43748354483648" fill="none" stroke="none" visibility="hidden"></rect></g></svg></g></svg>