<svg xmlns="http://www.w3.org/2000/svg" version="1.1" xmlns:xlink="http://www.w3.org/1999/xlink" xmlns:svgjs="http://svgjs.dev/svgjs" width="1000" height="623" viewBox="0 0 1000 623"><g transform="matrix(1,0,0,1,-0.6060606060606233,0.2522267206477409)"><svg viewBox="0 0 396 247" data-background-color="#ffffff" preserveAspectRatio="xMidYMid meet" height="623" width="1000" xmlns="http://www.w3.org/2000/svg" xmlns:xlink="http://www.w3.org/1999/xlink"><defs></defs><g id="tight-bounds" transform="matrix(1,0,0,1,0.2400000000000091,-0.09999999999999432)"><svg viewBox="0 0 395.52 247.2" height="247.2" width="395.52"><g><svg></svg></g><g><svg viewBox="0 0 395.52 247.2" height="247.2" width="395.52"><g transform="matrix(3.6005878555707245, 0, 0, 3.6005878555707245, 44.735029873396854, 1)"><svg xmlns="http://www.w3.org/2000/svg" xmlns:xlink="http://www.w3.org/1999/xlink" version="1.1" x="0" y="0" viewBox="2 12.800003051757812 84.99999237060547 68.09999084472656" enable-background="new 0 0 90 90" xml:space="preserve" height="68.09999084472656" width="84.99999237060547" class="icon-none" data-fill-palette-color="accent" id="none"><g fill="#8789fe" data-fill-palette-color="accent"><path d="M29 28.9c0.2 0.2 0.4 0.3 0.6 0.3 0.2 0 0.5-0.1 0.6-0.3l3.8-3.8-3.8-3.8c-0.4-0.4-0.9-0.4-1.3 0-0.4 0.4-0.4 0.9 0 1.3l2.5 2.5L29 27.6C28.7 28 28.7 28.6 29 28.9z" fill="#8789fe" data-fill-palette-color="accent"></path><path d="M35.3 28.1c-0.5 0-0.9 0.4-0.9 0.9 0 0.5 0.4 0.9 0.9 0.9h4.8c0.5 0 0.9-0.4 0.9-0.9 0-0.5-0.4-0.9-0.9-0.9H35.3z" fill="#8789fe" data-fill-palette-color="accent"></path><path d="M74.2 31.6c0.8-0.2 1.8-0.3 2.7-0.3 1.4 0 2.6 0.3 3.1 0.7 1.4 1.1 2 2.1 2.1 2.1l0.3 0.5 0.2-0.1V55c0 1.5-0.5 2.9-1.4 4l0.6 2.4c1.8-1.6 2.9-3.8 2.9-6.4v-21l2.3-0.6-0.8-1c-0.1-0.1-0.6-0.9-1.5-1.9v-9.2c0-4.7-3.8-8.5-8.5-8.5H29.8c-4.7 0-8.5 3.8-8.5 8.5V35c-0.8 0.2-1.5 0.5-2.3 0.8l-2.2-3.5L12.1 35l1.9 3.6c-1.4 1.1-2.6 2.3-3.7 3.7l-3.6-1.9L4 45.1l3.5 2.2c-0.7 1.7-1.1 3.4-1.4 5.1L2 52.5V58l4.1 0.1c0.2 1.7 0.7 3.5 1.4 5.1L4 65.4l2.7 4.7 3.6-1.9c1.1 1.4 2.3 2.6 3.7 3.7l-1.9 3.6 4.7 2.7 2.2-3.5c1.7 0.7 3.4 1.1 5.1 1.4l0.1 4.1h5.5l0.1-4.1c1.7-0.2 3.5-0.7 5.1-1.4l2.2 3.5 4.7-2.7L40 71.9c1.4-1.1 2.6-2.3 3.7-3.7l3.6 1.9 2.7-4.7-3-1.9h22.9l-0.5-2.1H29.8c-3.5 0-6.4-2.9-6.4-6.4V21.3c0-3.5 2.9-6.4 6.4-6.4h46.4c3.5 0 6.4 2.9 6.4 6.4v6.9c-0.6-0.6-1.2-1.2-1.8-1.6C78.7 25 75.6 24 72.7 24c-1 0-1.9 0.1-2.7 0.3l-11.5 2.9L56.7 26l-5.6 1.4L54.3 40l5.6-1.4 1-1.9 3.9-1 11 45.2 9.1-2.3L72.8 33.3 74.2 31.6zM11.5 59.1c-1-3.9-0.5-8.1 1.7-11.8 1.9-3.3 4.8-5.6 8.1-6.9v10.4c-0.2 0.3-0.4 0.6-0.6 0.9-0.7 1.2-1 2.4-1 3.7 0 1.5-0.8 2.9-2.1 3.7l-2.7 1.6C13.6 61.3 11.9 60.6 11.5 59.1zM38.2 63.5c0.8 0.9 0.9 2.3-0.1 3.2-5 4.8-12.8 6-19.1 2.3-1.1-0.7-2.2-1.4-3.1-2.3-1.1-1.1-0.9-2.9 0.4-3.7l2.7-1.6c1.3-0.8 2.9-0.7 4.2 0 0 0 0 0 0 0 0.7 0.4 1.5 0.7 2.2 0.8 1.2 0.7 2.7 1.1 4.2 1.1H38.2zM59.7 35.2l-1 1.9-3.2 0.8-2.3-9.2 3.2-0.8 1.8 1.2L70.4 26c0.7-0.2 1.5-0.3 2.3-0.3 2.5 0 5.3 0.9 7 2.3 1.5 1.2 3.3 3.3 4.3 4.5l-0.9 0.2c-0.4-0.5-1.1-1.3-2.1-2.1-1.1-0.9-2.9-1.1-4.2-1.1-1.2 0-2.4 0.1-3.4 0.4L73.2 30l-1.7 2.2L59.7 35.2z" fill="#8789fe" data-fill-palette-color="accent"></path><rect x="56.6" y="31.6" transform="matrix(-0.2466 -0.9691 0.9691 -0.2466 42.9199 97.4263)" width="5.5" height="0.9" fill="#8789fe" data-fill-palette-color="accent"></rect></g></svg></g><rect width="348.05760000000004" height="44.95452829586786" fill="#ffffff" y="101.12273585206606" x="23.731199999999973" data-fill-palette-color="quaternary"></rect><g transform="matrix(1,0,0,1,39.55199999999999,108.33169608305803)"><svg viewBox="0 0 316.416 30.536607833883906" height="30.536607833883906" width="316.416"><g><svg viewBox="0 0 316.416 30.536607833883906" height="30.536607833883906" width="316.416"><g><svg viewBox="0 0 316.416 30.536607833883906" height="30.536607833883906" width="316.416"><g><svg viewBox="0 0 316.416 30.536607833883906" height="30.536607833883906" width="316.416"><g><svg viewBox="0 0 316.416 30.536607833883906" height="30.536607833883906" width="316.416"><g transform="matrix(1,0,0,1,0,0)"><svg width="316.416" viewBox="0.800000011920929 -40.20000076293945 423.77001953125 40.900001525878906" height="30.536607833883906" data-palette-color="#8789fe"><path d="M48.95-35L58.4-35 47.05 0 36.45 0 29.75-21.3 22.75 0 12.15 0 0.8-35 11-35 18.05-12.65 25.45-35 34.55-35 41.6-12.45 48.95-35ZM87.2-13.5Q87.2-13.4 87.05-11.15L87.05-11.15 67.35-11.15Q67.95-9.05 69.67-7.93 71.4-6.8 74-6.8L74-6.8Q75.95-6.8 77.37-7.35 78.8-7.9 80.25-9.15L80.25-9.15 85.25-3.95Q81.3 0.45 73.7 0.45L73.7 0.45Q68.95 0.45 65.35-1.35 61.75-3.15 59.77-6.35 57.8-9.55 57.8-13.6L57.8-13.6Q57.8-17.6 59.72-20.78 61.65-23.95 65.05-25.75 68.45-27.55 72.7-27.55L72.7-27.55Q76.75-27.55 80.05-25.88 83.35-24.2 85.27-21.03 87.2-17.85 87.2-13.5L87.2-13.5ZM72.75-20.8Q70.55-20.8 69.07-19.55 67.6-18.3 67.2-16.15L67.2-16.15 78.3-16.15Q77.9-18.3 76.42-19.55 74.95-20.8 72.75-20.8L72.75-20.8ZM108.65-27.55Q112.35-27.55 115.37-25.85 118.4-24.15 120.17-20.98 121.95-17.8 121.95-13.6L121.95-13.6Q121.95-9.4 120.17-6.2 118.4-3 115.37-1.28 112.35 0.45 108.65 0.45L108.65 0.45Q103.3 0.45 100.65-2.7L100.65-2.7 100.65 0 91.6 0 91.6-37.1 101.1-37.1 101.1-24.75Q103.85-27.55 108.65-27.55L108.65-27.55ZM106.65-7.1Q109.15-7.1 110.75-8.83 112.35-10.55 112.35-13.6L112.35-13.6Q112.35-16.6 110.75-18.3 109.15-20 106.65-20L106.65-20Q104.15-20 102.55-18.3 100.95-16.6 100.95-13.6L100.95-13.6Q100.95-10.55 102.55-8.83 104.15-7.1 106.65-7.1L106.65-7.1ZM153.64 0.7Q149.39 0.7 145.39-0.35 141.39-1.4 138.89-3.15L138.89-3.15 142.14-10.45Q144.49-8.9 147.59-7.95 150.69-7 153.69-7L153.69-7Q159.39-7 159.39-9.85L159.39-9.85Q159.39-11.35 157.77-12.08 156.14-12.8 152.54-13.6L152.54-13.6Q148.59-14.45 145.94-15.43 143.29-16.4 141.39-18.55 139.49-20.7 139.49-24.35L139.49-24.35Q139.49-27.55 141.24-30.13 142.99-32.7 146.47-34.2 149.94-35.7 154.99-35.7L154.99-35.7Q158.44-35.7 161.79-34.93 165.14-34.15 167.69-32.65L167.69-32.65 164.64-25.3Q159.64-28 154.94-28L154.94-28Q151.99-28 150.64-27.13 149.29-26.25 149.29-24.85L149.29-24.85Q149.29-23.45 150.89-22.75 152.49-22.05 156.04-21.3L156.04-21.3Q160.04-20.45 162.67-19.48 165.29-18.5 167.22-16.38 169.14-14.25 169.14-10.6L169.14-10.6Q169.14-7.45 167.39-4.9 165.64-2.35 162.14-0.83 158.64 0.7 153.64 0.7L153.64 0.7ZM186.84 0.45Q182.49 0.45 178.99-1.35 175.49-3.15 173.51-6.35 171.54-9.55 171.54-13.6L171.54-13.6Q171.54-17.6 173.51-20.8 175.49-24 178.96-25.78 182.44-27.55 186.84-27.55L186.84-27.55Q191.24-27.55 194.74-25.78 198.24-24 200.19-20.83 202.14-17.65 202.14-13.6L202.14-13.6Q202.14-9.55 200.19-6.35 198.24-3.15 194.74-1.35 191.24 0.45 186.84 0.45L186.84 0.45ZM186.84-7.1Q189.34-7.1 190.94-8.83 192.54-10.55 192.54-13.6L192.54-13.6Q192.54-16.6 190.94-18.3 189.34-20 186.84-20L186.84-20Q184.34-20 182.74-18.3 181.14-16.6 181.14-13.6L181.14-13.6Q181.14-10.55 182.74-8.83 184.34-7.1 186.84-7.1L186.84-7.1ZM206.54 0L206.54-37.1 216.04-37.1 216.04 0 206.54 0ZM241.18-27.1L250.68-27.1 250.68 0 241.63 0 241.63-2.9Q240.13-1.25 238.03-0.4 235.93 0.45 233.58 0.45L233.58 0.45Q228.33 0.45 225.21-2.65 222.08-5.75 222.08-11.95L222.08-11.95 222.08-27.1 231.58-27.1 231.58-13.5Q231.58-10.45 232.73-9.05 233.88-7.65 236.08-7.65L236.08-7.65Q238.33-7.65 239.76-9.22 241.18-10.8 241.18-14.05L241.18-14.05 241.18-27.1ZM273.13-7.75L275.48-1.1Q274.28-0.35 272.56 0.05 270.83 0.45 268.88 0.45L268.88 0.45Q263.58 0.45 260.73-2.15 257.88-4.75 257.88-9.9L257.88-9.9 257.88-19 253.93-19 253.93-26.1 257.88-26.1 257.88-33.15 267.38-33.15 267.38-26.1 273.58-26.1 273.58-19 267.38-19 267.38-10Q267.38-8.55 268.16-7.73 268.93-6.9 270.23-6.9L270.23-6.9Q271.88-6.9 273.13-7.75L273.13-7.75ZM279.13 0L279.13-27.1 288.63-27.1 288.63 0 279.13 0ZM283.88-30.1Q281.28-30.1 279.68-31.55 278.08-33 278.08-35.15L278.08-35.15Q278.08-37.3 279.68-38.75 281.28-40.2 283.88-40.2L283.88-40.2Q286.48-40.2 288.08-38.83 289.68-37.45 289.68-35.3L289.68-35.3Q289.68-33.05 288.08-31.58 286.48-30.1 283.88-30.1L283.88-30.1ZM308.38 0.45Q304.03 0.45 300.53-1.35 297.03-3.15 295.05-6.35 293.08-9.55 293.08-13.6L293.08-13.6Q293.08-17.6 295.05-20.8 297.03-24 300.5-25.78 303.98-27.55 308.38-27.55L308.38-27.55Q312.78-27.55 316.28-25.78 319.78-24 321.73-20.83 323.68-17.65 323.68-13.6L323.68-13.6Q323.68-9.55 321.73-6.35 319.78-3.15 316.28-1.35 312.78 0.45 308.38 0.45L308.38 0.45ZM308.38-7.1Q310.88-7.1 312.48-8.83 314.08-10.55 314.08-13.6L314.08-13.6Q314.08-16.6 312.48-18.3 310.88-20 308.38-20L308.38-20Q305.88-20 304.28-18.3 302.68-16.6 302.68-13.6L302.68-13.6Q302.68-10.55 304.28-8.83 305.88-7.1 308.38-7.1L308.38-7.1ZM345.72-27.55Q350.77-27.55 353.85-24.55 356.92-21.55 356.92-15.5L356.92-15.5 356.92 0 347.42 0 347.42-13.95Q347.42-19.5 342.97-19.5L342.97-19.5Q340.52-19.5 339.05-17.9 337.57-16.3 337.57-13.1L337.57-13.1 337.57 0 328.07 0 328.07-27.1 337.12-27.1 337.12-24.15Q338.72-25.8 340.92-26.68 343.12-27.55 345.72-27.55L345.72-27.55ZM362.87 0L362.87-27.1 372.37-27.1 372.37 0 362.87 0ZM367.62-30.1Q365.02-30.1 363.42-31.55 361.82-33 361.82-35.15L361.82-35.15Q361.82-37.3 363.42-38.75 365.02-40.2 367.62-40.2L367.62-40.2Q370.22-40.2 371.82-38.83 373.42-37.45 373.42-35.3L373.42-35.3Q373.42-33.05 371.82-31.58 370.22-30.1 367.62-30.1L367.62-30.1ZM388.37 0.45Q384.97 0.45 381.67-0.33 378.37-1.1 376.37-2.35L376.37-2.35 379.22-8.85Q381.07-7.7 383.62-7.03 386.17-6.35 388.67-6.35L388.67-6.35Q390.97-6.35 391.94-6.83 392.92-7.3 392.92-8.2L392.92-8.2Q392.92-9.1 391.74-9.47 390.57-9.85 388.02-10.2L388.02-10.2Q384.77-10.6 382.49-11.25 380.22-11.9 378.57-13.65 376.92-15.4 376.92-18.55L376.92-18.55Q376.92-21.15 378.47-23.18 380.02-25.2 382.99-26.38 385.97-27.55 390.12-27.55L390.12-27.55Q393.07-27.55 395.97-26.95 398.87-26.35 400.82-25.25L400.82-25.25 397.97-18.8Q394.37-20.8 390.17-20.8L390.17-20.8Q387.92-20.8 386.87-20.28 385.82-19.75 385.82-18.9L385.82-18.9Q385.82-17.95 386.97-17.57 388.12-17.2 390.77-16.8L390.77-16.8Q394.12-16.3 396.32-15.65 398.52-15 400.14-13.28 401.77-11.55 401.77-8.45L401.77-8.45Q401.77-5.9 400.22-3.88 398.67-1.85 395.64-0.7 392.62 0.45 388.37 0.45L388.37 0.45ZM422.22-7.75L424.57-1.1Q423.37-0.35 421.64 0.05 419.92 0.45 417.97 0.45L417.97 0.45Q412.67 0.45 409.82-2.15 406.97-4.75 406.97-9.9L406.97-9.9 406.97-19 403.02-19 403.02-26.1 406.97-26.1 406.97-33.15 416.47-33.15 416.47-26.1 422.67-26.1 422.67-19 416.47-19 416.47-10Q416.47-8.55 417.24-7.73 418.02-6.9 419.32-6.9L419.32-6.9Q420.97-6.9 422.22-7.75L422.22-7.75Z" opacity="1" transform="matrix(1,0,0,1,0,0)" fill="#8789fe" class="undefined-text-0" data-fill-palette-color="primary" id="text-0"></path></svg></g></svg></g></svg></g></svg></g><g></g></svg></g></svg></g></svg></g></svg><rect width="395.52" height="247.2" fill="none" stroke="none" visibility="hidden"></rect></g></svg></g></svg>